HIERARCHY
ROOT Hips
{
	OFFSET 0.000000 121.760803 0.000000
	CHANNELS 6 Xposition Yposition Zposition Xrotation Yrotation Zrotation 
	JOINT Spine
	{
		OFFSET 0.072000 7.257294 -0.789700
		CHANNELS 3 Xrotation Yrotation Zrotation
		JOINT Spine1
		{
			OFFSET 0.000000 12.508769 -0.658067
			CHANNELS 3 Xrotation Yrotation Zrotation
			JOINT Spine1_split
			{
				OFFSET 0.000000 12.508769 -0.658067
				CHANNELS 3 Xrotation Yrotation Zrotation
				JOINT Spine2
				{
					OFFSET 0.000000 12.508769 -0.658067
					CHANNELS 3 Xrotation Yrotation Zrotation
					JOINT Neck
					{
						OFFSET 0.000000 14.033295 7.520400
						CHANNELS 3 Xrotation Yrotation Zrotation
						JOINT Head
						{
							OFFSET 0.000000 8.198502 5.703100
							CHANNELS 3 Xrotation Yrotation Zrotation
							JOINT HeadTop_End
							{
								OFFSET 0.000000 17.760803 13.332701
								CHANNELS 3 Xrotation Yrotation Zrotation
								End Site
								{
									OFFSET 0.000000 0.000000 0.000000
								}
							}
						}
					}
					JOINT LeftShoulder
					{
						OFFSET 6.292450 5.785301 -0.669000
						CHANNELS 3 Xrotation Yrotation Zrotation
						JOINT LeftShoulder_split
						{
							OFFSET 6.292450 5.785301 -0.669000
							CHANNELS 3 Xrotation Yrotation Zrotation
							JOINT LeftArm
							{
								OFFSET 13.907140 -6.093903 1.965100
								CHANNELS 3 Xrotation Yrotation Zrotation
								JOINT LeftForeArm
								{
									OFFSET 34.140198 0.000000 0.000000
									CHANNELS 3 Xrotation Yrotation Zrotation
									JOINT LeftHand
									{
										OFFSET 40.960209 0.000000 0.000000
										CHANNELS 3 Xrotation Yrotation Zrotation
										JOINT LeftHandThumb1
										{
											OFFSET 10.006996 -7.170425 9.573125
											CHANNELS 3 Xrotation Yrotation Zrotation
											JOINT LeftHandThumb2
											{
												OFFSET 1.835007 -1.059448 1.059443
												CHANNELS 3 Xrotation Yrotation Zrotation
												JOINT LeftHandThumb3
												{
													OFFSET 2.112267 -1.219513 1.219518
													CHANNELS 3 Xrotation Yrotation Zrotation
													JOINT LeftHandThumb4
													{
														OFFSET 4.843811 -2.796570 2.796576
														CHANNELS 3 Xrotation Yrotation Zrotation
														End Site
														{
															OFFSET 0.000000 0.000000 0.000000
														}
													}
												}
											}
										}
										JOINT LeftHandIndex1
										{
											OFFSET 18.389847 -0.922348 4.596882
											CHANNELS 3 Xrotation Yrotation Zrotation
											JOINT LeftHandIndex2
											{
												OFFSET 4.711273 0.000000 0.000000
												CHANNELS 3 Xrotation Yrotation Zrotation
												JOINT LeftHandIndex3
												{
													OFFSET 2.886131 0.000000 0.000000
													CHANNELS 3 Xrotation Yrotation Zrotation
													JOINT LeftHandIndex4
													{
														OFFSET 6.145912 0.000000 0.000000
														CHANNELS 3 Xrotation Yrotation Zrotation
														End Site
														{
															OFFSET 0.000000 0.000000 0.000000
														}
													}
												}
											}
										}
										JOINT LeftHandMiddle1
										{
											OFFSET 18.013008 0.000000 0.000000
											CHANNELS 3 Xrotation Yrotation Zrotation
											JOINT LeftHandMiddle2
											{
												OFFSET 4.946693 0.000000 0.000000
												CHANNELS 3 Xrotation Yrotation Zrotation
												JOINT LeftHandMiddle3
												{
													OFFSET 3.342232 0.000000 0.000000
													CHANNELS 3 Xrotation Yrotation Zrotation
													JOINT LeftHandMiddle4
													{
														OFFSET 4.461754 0.000000 0.000000
														CHANNELS 3 Xrotation Yrotation Zrotation
														End Site
														{
															OFFSET 0.000000 0.000000 0.000000
														}
													}
												}
											}
										}
										JOINT LeftHandRing1
										{
											OFFSET 15.849892 -0.102921 -4.126150
											CHANNELS 3 Xrotation Yrotation Zrotation
											JOINT LeftHandRing2
											{
												OFFSET 3.527054 0.000000 0.000000
												CHANNELS 3 Xrotation Yrotation Zrotation
												JOINT LeftHandRing3
												{
													OFFSET 2.961098 0.000000 0.000000
													CHANNELS 3 Xrotation Yrotation Zrotation
													JOINT LeftHandRing4
													{
														OFFSET 4.927200 0.000000 0.000000
														CHANNELS 3 Xrotation Yrotation Zrotation
														End Site
														{
															OFFSET 0.000000 0.000000 0.000000
														}
													}
												}
											}
										}
										JOINT LeftHandPinky1
										{
											OFFSET 12.791824 -0.832031 -6.799156
											CHANNELS 3 Xrotation Yrotation Zrotation
											JOINT LeftHandPinky2
											{
												OFFSET 3.327133 0.000000 0.000000
												CHANNELS 3 Xrotation Yrotation Zrotation
												JOINT LeftHandPinky3
												{
													OFFSET 3.014900 0.000000 0.000000
													CHANNELS 3 Xrotation Yrotation Zrotation
													JOINT LeftHandPinky4
													{
														OFFSET 5.847786 0.000000 0.000000
														CHANNELS 3 Xrotation Yrotation Zrotation
														End Site
														{
															OFFSET 0.000000 0.000000 0.000000
														}
													}
												}
											}
										}
									}
								}
							}
						}
					}
					JOINT RightShoulder
					{
						OFFSET -6.292450 5.785301 -0.669000
						CHANNELS 3 Xrotation Yrotation Zrotation
						JOINT RightShoulder_split
						{
							OFFSET -6.292450 5.785301 -0.669000
							CHANNELS 3 Xrotation Yrotation Zrotation
							JOINT RightArm
							{
								OFFSET -13.907140 -6.093903 1.965100
								CHANNELS 3 Xrotation Yrotation Zrotation
								JOINT RightForeArm
								{
									OFFSET -34.140198 0.000000 0.000000
									CHANNELS 3 Xrotation Yrotation Zrotation
									JOINT RightHand
									{
										OFFSET -40.960209 0.000000 0.000000
										CHANNELS 3 Xrotation Yrotation Zrotation
										JOINT RightHandThumb1
										{
											OFFSET -10.007050 -7.170456 9.573117
											CHANNELS 3 Xrotation Yrotation Zrotation
											JOINT RightHandThumb2
											{
												OFFSET -1.835007 -1.059448 1.059443
												CHANNELS 3 Xrotation Yrotation Zrotation
												JOINT RightHandThumb3
												{
													OFFSET -2.112267 -1.219513 1.219518
													CHANNELS 3 Xrotation Yrotation Zrotation
													JOINT RightHandThumb4
													{
														OFFSET -4.843834 -2.796585 2.796590
														CHANNELS 3 Xrotation Yrotation Zrotation
														End Site
														{
															OFFSET 0.000000 0.000000 0.000000
														}
													}
												}
											}
										}
										JOINT RightHandIndex1
										{
											OFFSET -18.389870 -0.922424 4.596786
											CHANNELS 3 Xrotation Yrotation Zrotation
											JOINT RightHandIndex2
											{
												OFFSET -4.711273 0.000000 0.000000
												CHANNELS 3 Xrotation Yrotation Zrotation
												JOINT RightHandIndex3
												{
													OFFSET -2.886131 0.000000 0.000000
													CHANNELS 3 Xrotation Yrotation Zrotation
													JOINT RightHandIndex4
													{
														OFFSET -6.145920 0.000000 0.000000
														CHANNELS 3 Xrotation Yrotation Zrotation
														End Site
														{
															OFFSET 0.000000 0.000000 0.000000
														}
													}
												}
											}
										}
										JOINT RightHandMiddle1
										{
											OFFSET -18.013008 0.000000 0.000000
											CHANNELS 3 Xrotation Yrotation Zrotation
											JOINT RightHandMiddle2
											{
												OFFSET -4.946693 0.000000 0.000000
												CHANNELS 3 Xrotation Yrotation Zrotation
												JOINT RightHandMiddle3
												{
													OFFSET -3.342232 0.000000 0.000000
													CHANNELS 3 Xrotation Yrotation Zrotation
													JOINT RightHandMiddle4
													{
														OFFSET -4.461754 0.000000 0.000000
														CHANNELS 3 Xrotation Yrotation Zrotation
														End Site
														{
															OFFSET 0.000000 0.000000 0.000000
														}
													}
												}
											}
										}
										JOINT RightHandRing1
										{
											OFFSET -15.849876 -0.102936 -4.126237
											CHANNELS 3 Xrotation Yrotation Zrotation
											JOINT RightHandRing2
											{
												OFFSET -3.527054 0.000000 0.000000
												CHANNELS 3 Xrotation Yrotation Zrotation
												JOINT RightHandRing3
												{
													OFFSET -2.961098 0.000000 0.000000
													CHANNELS 3 Xrotation Yrotation Zrotation
													JOINT RightHandRing4
													{
														OFFSET -4.927200 0.000000 0.000000
														CHANNELS 3 Xrotation Yrotation Zrotation
														End Site
														{
															OFFSET 0.000000 0.000000 0.000000
														}
													}
												}
											}
										}
										JOINT RightHandPinky1
										{
											OFFSET -12.791786 -0.832077 -6.799222
											CHANNELS 3 Xrotation Yrotation Zrotation
											JOINT RightHandPinky2
											{
												OFFSET -3.327133 0.000000 0.000000
												CHANNELS 3 Xrotation Yrotation Zrotation
												JOINT RightHandPinky3
												{
													OFFSET -3.014900 0.000000 0.000000
													CHANNELS 3 Xrotation Yrotation Zrotation
													JOINT RightHandPinky4
													{
														OFFSET -5.847786 0.000000 0.000000
														CHANNELS 3 Xrotation Yrotation Zrotation
														End Site
														{
															OFFSET 0.000000 0.000000 0.000000
														}
													}
												}
											}
										}
									}
								}
							}
						}
					}
				}
			}
		}
	}
	JOINT LeftUpLeg
	{
		OFFSET 13.026900 -6.336304 -1.092800
		CHANNELS 3 Xrotation Yrotation Zrotation
		JOINT LeftLeg
		{
			OFFSET 0.524474 -46.096886 9.782700
			CHANNELS 3 Xrotation Yrotation Zrotation
			JOINT LeftFoot
			{
				OFFSET -0.524474 -53.427422 -12.948200
				CHANNELS 3 Xrotation Yrotation Zrotation
				JOINT LeftToeBase
				{
					OFFSET 0.192200 -14.009700 16.364100
					CHANNELS 3 Xrotation Yrotation Zrotation
					JOINT LeftToe_End
					{
						OFFSET -1.784700 -0.561700 9.474800
						CHANNELS 3 Xrotation Yrotation Zrotation
						End Site
						{
							OFFSET 0.000000 0.000000 0.000000
						}
					}
				}
			}
		}
	}
	JOINT RightUpLeg
	{
		OFFSET -12.883000 -6.336304 -1.092800
		CHANNELS 3 Xrotation Yrotation Zrotation
		JOINT RightLeg
		{
			OFFSET -0.524587 -46.096825 9.782800
			CHANNELS 3 Xrotation Yrotation Zrotation
			JOINT RightFoot
			{
				OFFSET 0.524587 -53.427383 -12.948300
				CHANNELS 3 Xrotation Yrotation Zrotation
				JOINT RightToeBase
				{
					OFFSET -0.192200 -14.009700 16.364100
					CHANNELS 3 Xrotation Yrotation Zrotation
					JOINT RightToe_End
					{
						OFFSET 1.784700 -0.561700 9.474800
						CHANNELS 3 Xrotation Yrotation Zrotation
						End Site
						{
							OFFSET 0.000000 0.000000 0.000000
						}
					}
				}
			}
		}
	}
}
MOTION
Frames: 4
Frame Time: 0.016667
-1.144343 95.926720 0.540359 11.742419 -49.637700 11.853728 11.000843 2.884744 -2.598278 6.100705 5.566556 -4.284690 0.000000 0.000000 0.000000 -5.786912 6.328144 -3.046185 2.319055 9.363312 -0.265468 -4.147098 23.161909 -3.523284 -0.000000 -0.000000 0.000000 -1.875338 -16.181685 -2.870473 0.000000 0.000000 0.000000 -10.644678 2.164677 -45.510630 -22.862371 -25.786235 -15.871638 2.491033 -2.511860 6.860458 18.457968 -9.513779 13.216604 -1.150210 11.255324 -8.400830 5.706548 8.483106 -0.820715 -0.000001 -0.000002 0.000002 -1.232797 -5.771974 -0.192356 0.133939 -0.197647 -4.602135 0.055758 -0.448201 -7.568203 0.000001 0.000001 -0.000001 1.884734 4.663372 -4.597385 0.476685 -1.009844 -12.986407 0.628517 -1.346616 -16.554019 0.000002 -0.000000 -0.000003 3.024614 7.938902 -14.103473 -0.708008 -0.566210 -18.895741 -0.726358 -0.705011 -22.058410 0.000004 0.000002 0.000001 2.010391 6.305957 -22.386534 -0.815372 -0.210766 -16.746476 -2.232635 0.018997 -34.673851 -0.000000 0.000001 0.000003 -5.074633 24.343807 1.482710 0.000000 0.000000 0.000000 6.642372 -34.733800 57.610419 -21.031985 44.833809 19.961648 -0.087216 35.608495 7.474241 55.149577 18.649528 -29.698294 -0.442562 -14.180552 7.313159 21.666979 -29.244507 9.142366 0.000000 0.000001 0.000000 5.673411 7.585000 36.844171 1.050425 3.824533 68.900264 0.499595 3.026032 62.196447 -0.000001 0.000001 -0.000001 -0.125703 1.886101 45.000773 -1.169025 3.204653 68.417663 -0.936438 1.813612 41.107555 0.000000 0.000001 -0.000000 -5.312010 1.216656 58.508794 -0.745223 1.667557 48.011281 -0.816484 1.840597 53.666552 0.000001 0.000001 -0.000000 -7.756802 -9.376456 47.263994 -0.526057 1.541607 45.600525 -0.508176 0.803475 24.986618 -0.000004 -0.000000 0.000001 -66.339394 27.373679 41.603369 43.627799 -19.169576 3.300690 6.155586 0.696575 -10.402427 -0.952534 -6.111284 0.979592 -0.000000 -0.000002 0.000000 -33.768343 0.305290 -25.532186 50.490667 2.246445 -6.583153 -23.895034 -2.614798 25.261354 0.528309 2.970070 1.471354 0.000000 -0.000003 -0.000000 
-0.355677 96.071960 1.773032 11.531959 -50.254886 11.470025 10.955572 2.919625 -2.377773 6.124976 5.554785 -4.185737 0.000000 0.000000 0.000000 -5.749232 6.252886 -2.945709 2.454507 9.259356 0.283438 -4.037786 23.425824 -4.188944 0.000001 0.000000 0.000000 -1.890574 -15.766095 -3.028448 0.000000 0.000000 0.000000 -10.843713 2.172858 -45.626978 -22.239280 -25.278206 -15.651660 2.395516 -2.217323 6.686366 18.445855 -9.517013 13.239944 -1.175396 11.215347 -8.387405 5.706517 8.483074 -0.820714 -0.000002 -0.000002 0.000001 -1.232791 -5.771116 -0.170639 0.134047 -0.196793 -4.580415 0.055826 -0.447308 -7.546471 0.000000 -0.000002 0.000000 1.839190 4.652776 -4.567429 0.476921 -1.008872 -12.960893 0.628811 -1.345706 -16.528499 -0.000000 0.000001 -0.000001 3.025049 7.940572 -14.060291 -0.707443 -0.564583 -18.852217 -0.725719 -0.703401 -22.014977 -0.000001 -0.000000 0.000001 2.032031 6.337670 -22.326014 -0.814700 -0.208482 -16.683553 -2.231516 0.020622 -34.610867 -0.000000 -0.000002 0.000000 -5.114981 24.192844 1.600718 0.000000 0.000000 0.000000 7.019140 -34.769399 57.282867 -21.780874 43.486988 20.030028 -0.160465 36.453143 8.087212 55.149570 18.649529 -29.698291 -0.442561 -14.180552 7.313155 21.666977 -29.244500 9.142367 0.000000 0.000001 0.000001 5.673413 7.585000 36.844171 1.050425 3.824538 68.900264 0.499596 3.026032 62.196447 -0.000003 -0.000001 0.000000 -0.125702 1.886104 45.000780 -1.169025 3.204655 68.417663 -0.936437 1.813613 41.107555 0.000001 0.000002 -0.000002 -5.312010 1.216661 58.508801 -0.745225 1.667557 48.011281 -0.816486 1.840596 53.666552 0.000000 0.000002 -0.000002 -7.756796 -9.376457 47.263997 -0.526058 1.541605 45.600525 -0.508177 0.803476 24.986618 -0.000001 0.000001 0.000000 -66.287245 27.421531 41.854948 44.823127 -18.763267 3.117236 5.007003 0.753918 -9.572039 -0.954764 -6.111333 0.980807 -0.000000 0.000003 0.000000 -32.968999 0.469309 -25.680372 49.154607 2.473408 -6.844057 -22.852023 -3.168482 26.087361 0.717113 3.574762 1.379338 0.000000 -0.000003 0.000000 
0.588743 96.323425 3.010354 11.349089 -51.035344 11.130873 10.848644 2.957646 -2.146800 6.211061 5.531374 -4.085913 0.000000 0.000000 0.000000 -5.634574 6.080637 -2.847562 2.506705 8.998884 0.963303 -3.946305 23.543606 -4.816442 0.000000 0.000000 -0.000000 -1.898947 -15.838089 -3.026468 0.000000 0.000000 0.000000 -10.916584 3.036734 -45.852703 -21.654539 -24.915536 -15.679258 2.318329 -2.084240 6.697811 18.431655 -9.520760 13.267339 -1.205840 11.169467 -8.368942 5.706525 8.483090 -0.820717 -0.000000 0.000001 -0.000003 -1.232793 -5.770107 -0.145179 0.134125 -0.195821 -4.554972 0.055977 -0.446339 -7.521031 0.000002 0.000001 -0.000001 1.785778 4.640266 -4.532351 0.477188 -1.007129 -12.931031 0.629113 -1.344546 -16.498592 0.000002 0.000001 0.000001 3.025548 7.942523 -14.009672 -0.706795 -0.562730 -18.801288 -0.724969 -0.701496 -21.964010 0.000002 0.000005 0.000004 2.057240 6.374992 -22.255032 -0.813907 -0.205790 -16.609780 -2.230212 0.022542 -34.537036 -0.000001 -0.000002 -0.000002 -5.162248 24.117342 1.733596 0.000000 0.000000 0.000000 7.217169 -34.742908 57.034815 -22.411823 42.270077 20.016540 -0.144740 37.048882 8.544427 55.149567 18.649531 -29.698294 -0.442563 -14.180550 7.313159 21.666977 -29.244493 9.142365 -0.000000 -0.000001 -0.000000 5.673407 7.585003 36.844165 1.050424 3.824538 68.900264 0.499599 3.026032 62.196454 0.000000 0.000000 0.000002 -0.125705 1.886103 45.000773 -1.169025 3.204651 68.417663 -0.936437 1.813612 41.107555 -0.000001 0.000001 0.000001 -5.312012 1.216660 58.508794 -0.745225 1.667563 48.011285 -0.816487 1.840596 53.666552 0.000001 -0.000002 -0.000003 -7.756800 -9.376455 47.263994 -0.526059 1.541606 45.600525 -0.508178 0.803475 24.986623 -0.000001 -0.000000 -0.000001 -66.088221 27.604496 42.067910 45.777721 -18.321619 2.880070 3.919945 0.866532 -8.727674 -0.961457 -6.107260 0.987098 -0.000000 0.000000 0.000000 -32.199465 0.636503 -25.865564 47.581236 2.754922 -7.054633 -21.701785 -3.555751 26.892558 0.888225 4.174510 1.281124 0.000000 -0.000000 -0.000000 
1.676374 96.630600 4.397163 11.250112 -52.036466 10.830803 10.682882 2.986881 -1.873130 6.304674 5.446438 -3.965663 0.000000 0.000000 0.000000 -5.493483 5.769520 -2.734773 2.557811 8.625433 1.729379 -3.941152 23.486683 -5.405066 0.000000 0.000000 0.000001 -1.912190 -15.416598 -3.171549 0.000000 0.000000 0.000000 -11.148239 3.692016 -46.007509 -20.985191 -24.405058 -15.663051 2.270430 -1.926648 6.652095 18.404102 -9.528089 13.320408 -1.265172 11.080867 -8.332365 5.706524 8.483149 -0.820721 0.000004 -0.000002 0.000005 -1.232766 -5.768254 -0.095818 0.134287 -0.193893 -4.505595 0.056228 -0.444371 -7.471660 0.000000 0.000004 -0.000001 1.682316 4.615607 -4.464387 0.477670 -1.002991 -12.873080 0.629785 -1.342413 -16.440554 -0.000002 -0.000000 0.000001 3.030795 7.946173 -13.912213 -0.705573 -0.559069 -18.702520 -0.723447 -0.697837 -21.865146 0.000003 -0.000000 0.000000 2.105538 6.447770 -22.117583 -0.813383 -0.200584 -16.466594 -2.227664 0.026235 -34.393978 -0.000002 -0.000001 0.000000 -5.215426 24.184383 1.892620 0.000000 0.000000 0.000000 6.918594 -34.742191 56.575317 -22.804883 40.833507 19.736808 -0.060785 37.536585 9.176390 55.149570 18.649534 -29.698294 -0.442562 -14.180554 7.313158 21.666977 -29.244497 9.142366 -0.000000 0.000001 0.000000 5.673409 7.585004 36.844171 1.050425 3.824537 68.900264 0.499601 3.026033 62.196454 -0.000002 0.000000 0.000002 -0.125704 1.886106 45.000773 -1.169025 3.204653 68.417663 -0.936432 1.813612 41.107558 -0.000001 0.000000 0.000001 -5.312009 1.216661 58.508801 -0.745225 1.667559 48.011281 -0.816486 1.840596 53.666555 0.000002 0.000001 -0.000001 -7.756798 -9.376456 47.263997 -0.526059 1.541606 45.600522 -0.508179 0.803485 24.986613 -0.000003 -0.000000 -0.000002 -65.820129 27.841816 42.270248 46.754206 -17.764745 2.629701 2.697538 1.067229 -7.832048 -0.972787 -6.100809 0.999606 -0.000000 -0.000000 0.000000 -31.440829 0.788382 -26.179567 45.685735 3.183215 -7.153400 -20.462863 -3.787328 27.729277 0.925892 4.755452 1.166109 0.000000 0.000000 -0.000000 
